{"title":"Dawn of the Planet of the apes 2014 BRRip 720p x264 RmD","uid":11432876,"size":2003833020,"categoryP":"video","categoryS":"hd___movies","magnet":"?xt=urn:btih:2ae1e1ac1554560fa546c7099e39f824e1066f8a&amp;dn=Dawn+of+the+Planet+of+the+apes+2014+BRRip+720p+x264+RmD&amp;tr=udp%3A%2F%2Ftracker.openbittorrent.com%3A80&amp;tr=udp%3A%2F%2Fopen.demonii.com%3A1337&amp;tr=udp%3A%2F%2Ftracker.coppersurfer.tk%3A6969&amp;tr=udp%3A%2F%2Fexodus.desync.com%3A6969","seeders":1,"leechers":0,"uploader":"RajMahal","files":-1,"time":1415734531,"description":"Screens :\n &lt;a href=&quot;\nhttp://s3.postimg.org/53b2jt55v/vlcsnap_2014_11_11_19h26m31s240.png&quot; rel=&quot;nofollow&quot; target=&quot;_NEW&quot;&gt;\nhttp://s3.postimg.org/53b2jt55v/vlcsnap_2014_11_11_19h26m31s240.png&lt;/a&gt;\n &lt;a href=&quot;\nhttp://s3.postimg.org/kar245x0j/vlcsnap_2014_11_11_19h26m45s115.png&quot; rel=&quot;nofollow&quot; target=&quot;_NEW&quot;&gt;\nhttp://s3.postimg.org/kar245x0j/vlcsnap_2014_11_11_19h26m45s115.png&lt;/a&gt;\n &lt;a href=&quot;\nhttp://s3.postimg.org/4hm3npa3n/vlcsnap_2014_11_11_19h27m15s138.png&quot; rel=&quot;nofollow&quot; target=&quot;_NEW&quot;&gt;\nhttp://s3.postimg.org/4hm3npa3n/vlcsnap_2014_11_11_19h27m15s138.png&lt;/a&gt;\n &lt;a href=&quot;\nhttp://s3.postimg.org/5imcctr37/vlcsnap_2014_11_11_19h27m24s227.png&quot; rel=&quot;nofollow&quot; target=&quot;_NEW&quot;&gt;\nhttp://s3.postimg.org/5imcctr37/vlcsnap_2014_11_11_19h27m24s227.png&lt;/a&gt;\n &lt;a href=&quot;\nhttp://s3.postimg.org/q1h8hw50j/vlcsnap_2014_11_11_19h27m39s146.png&quot; rel=&quot;nofollow&quot; target=&quot;_NEW&quot;&gt;\nhttp://s3.postimg.org/q1h8hw50j/vlcsnap_2014_11_11_19h27m39s146.png&lt;/a&gt;\n\n\nGeneral\nComplete name                            : E:Dawn of the Planet of the apes 2014 BRRip 720p x264 RmD.mp4\nFormat                                   : MPEG-4\nFormat profile                           : Base Media\nCodec ID                                 : isom\nFile size                                : 1.87 GiB\nDuration                                 : 2h 10mn\nOverall bit rate mode                    : Variable\nOverall bit rate                         : 2 049 Kbps\nEncoded date                             : UTC 2014-11-11 18:22:23\nTagged date                              : UTC 2014-11-11 18:22:23\n\nVideo\nID                                       : 1\nFormat                                   : AVC\nFormat/Info                              : Advanced Video Codec\nFormat profile                           : &lt;a class=&quot;__cf_email__&quot; href=&quot;/cdn-cgi/l/email-protection&quot; data-cfemail=&quot;4008292728000c736e71&quot;&gt;[email&amp;#160;protected]&lt;/a&gt;&lt;script cf-hash='f9e31' type=&quot;text/javascript&quot;&gt;\n/* &lt;![CDATA[ */!function(){try{var t=&quot;currentScript&quot;in document?document.currentScript:function(){for(var t=document.getElementsByTagName(&quot;script&quot;),e=t.length;e--;)if(t[e].getAttribute(&quot;cf-hash&quot;))return t[e]}();if(t&amp;&amp;t.previousSibling){var e,r,n,i,c=t.previousSibling,a=c.getAttribute(&quot;data-cfemail&quot;);if(a){for(e=&quot;&quot;,r=parseInt(a.substr(0,2),16),n=2;a.length-n;n+=2)i=parseInt(a.substr(n,2),16)^r,e+=String.fromCharCode(i);e=document.createTextNode(e),c.parentNode.replaceChild(e,c)}}}catch(u){}}();/* ]]&gt; */&lt;/script&gt;\nFormat settings, CABAC                   : No\nFormat settings, ReFrames                : 4 frames\nCodec ID                                 : avc1\nCodec ID/Info                            : Advanced Video Coding\nDuration                                 : 2h 10mn\nBit rate                                 : 1 599 Kbps\nMaximum bit rate                         : 8 341 Kbps\nWidth                                    : 1 280 pixels\nHeight                                   : 696 pixels\nDisplay aspect ratio                     : 1.85:1\nFrame rate mode                          : Constant\nFrame rate                               : 23.976 fps\nColor space                              : YUV\nChroma subsampling                       : 4:2:0\nBit depth                                : 8 bits\nScan type                                : Progressive\nBits/(Pixel*Frame)                       : 0.075\nStream size                              : 1.46 GiB (78%)\nWriting library                          : x264 core 142 r2431 ac76440\nEncoding settings                        : cabac=0 / ref=3 / deblock=0:0:0 / analyse=0x3:0x133 / me=hex / subme=4 / psy=1 / psy_rd=1.00:0.00 / mixed_ref=1 / me_range=16 / chroma_me=1 / trellis=0 / 8x8dct=1 / cqm=0 / deadzone=21,11 / fast_pskip=1 / chroma_qp_offset=0 / threads=6 / lookahead_threads=1 / sliced_threads=0 / nr=0 / decimate=1 / interlaced=0 / bluray_compat=0 / constrained_intra=0 / bframes=3 / b_pyramid=2 / b_adapt=1 / b_bias=0 / direct=3 / weightb=0 / open_gop=0 / weightp=0 / keyint=240 / keyint_min=23 / scenecut=40 / intra_refresh=0 / rc_lookahead=40 / rc=2pass / mbtree=1 / bitrate=1599 / ratetol=1.0 / qcomp=0.60 / qpmin=10 / qpmax=51 / qpstep=4 / cplxblur=20.0 / qblur=0.5 / ip_ratio=1.40 / aq=1:1.00\nEncoded date                             : UTC 2014-11-11 18:16:12\nTagged date                              : UTC 2014-11-11 18:23:24\n\nAudio\nID                                       : 2\nFormat                                   : AC-3\nFormat/Info                              : Audio Coding 3\nMode extension                           : CM (complete main)\nFormat settings, Endianness              : Big\nCodec ID                                 : ac-3\nDuration                                 : 2h 10mn\nBit rate mode                            : Constant\nBit rate                                 : 448 Kbps\nChannel(s)                               : 6 channels\nChannel positions                        : Front: L C R, Side: L R, LFE\nSampling rate                            : 48.0 KHz\nBit depth                                : 16 bits\nCompression mode                         : Lossy\nStream size                              : 418 MiB (22%)\nLanguage                                 : English\nEncoded date                             : UTC 2014-11-11 18:22:56\nTagged date                              : UTC 2014-11-11 18:23:24\n\nText #1\nID                                       : 3\nFormat                                   : Timed Text\nCodec ID                                 : tx3g\nDuration                                 : 1h 58mn\nBit rate mode                            : Variable\nBit rate                                 : 27 bps\nStream size                              : 23.4 KiB (0%)\nLanguage                                 : English\nEncoded date                             : UTC 2014-11-11 18:23:24\nTagged date                              : UTC 2014-11-11 18:23:24\n\nText #2\nID                                       : 4\nFormat                                   : Timed Text\nCodec ID                                 : tx3g\nDuration                                 : 1h 44mn\nBit rate mode                            : Variable\nBit rate                                 : 4 bps\nStream size                              : 3.21 KiB (0%)\nLanguage                                 : English\nEncoded date                             : UTC 2014-11-11 18:23:24\nTagged date                              : UTC 2014-11-11 18:23:24","torrent":{"xt":"urn:btih:2ae1e1ac1554560fa546c7099e39f824e1066f8a","amp;dn":"Dawn+of+the+Planet+of+the+apes+2014+BRRip+720p+x264+RmD","amp;tr":["udp%3A%2F%2Ftracker.openbittorrent.com%3A80","udp%3A%2F%2Fopen.demonii.com%3A1337","udp%3A%2F%2Ftracker.coppersurfer.tk%3A6969","udp%3A%2F%2Fexodus.desync.com%3A6969"],"infoHash":"2ae1e1ac1554560fa546c7099e39f824e1066f8a","infoHashBuffer":{"type":"Buffer","data":[42,225,225,172,21,84,86,15,165,70,199,9,158,57,248,36,225,6,111,138]},"announce":[],"urlList":[]}}